# xmcd
#
# Track frame offsets: 
#        150
#        18232
#        34696
#        52693
#        71210
#        84519
#        98150
#        118714
#        136246
#        158118
#        174627
#        188806
#        208848
#
# Disc length: 2944 seconds
#
# Revision: 0
# Processed by: cddbd v1.5.2PL0 Copyright (c) Steve Scherf et al.
# Submitted via: ExactAudioCopyFreeDBPlugin 1.0
#
DISCID=aa0b7e0d
DTITLE=Various Artist - Sweet Soul Of the Seventies: Reunited
DYEAR=2009
DGENRE=Soul
TTITLE0=Peaches and Herb - Reunited
TTITLE1=Sharon Paige and Harold Melvin And The Bluenotes - Hope That We 
TTITLE1=Can Be Together Soon
TTITLE2=Dionne Warwick and The Spinners - Then Came You
TTITLE3=Dionne Warwick and The Spinners - Just As Long As We Have Love
TTITLE4=Diana Ross and Marvin Gaye - My Mistake ( Was To Love You)
TTITLE5=Johnny Mathis and Deniece Williams - Too Much, Too Little ,Too L
TTITLE5=ate
TTITLE6=Norman Connors with Michael Henderson - You Are My Starship
TTITLE7=Marilyn McCoo and Billy Davis Jr. - You Don't Have To Be A Star 
TTITLE7=(To Be In My Show)
TTITLE8=Earth, Wind and Fire with The Emotions - Boogie Wonderland
TTITLE9=Diana Ross and Marvin Gaye - You're A Special Part Of Me
TTITLE10=The Supremes and The Four Tops - River Deep, Mountain High
TTITLE11=Margie Joseph and Blue Magic - What's Come Over Me
TTITLE12=Johnny Mathis and Deniece Williams - You're All I Need To Get B
TTITLE12=y
EXTD=
EXTT0=
EXTT1=
EXTT2=
EXTT3=
EXTT4=
EXTT5=
EXTT6=
EXTT7=
EXTT8=
EXTT9=
EXTT10=
EXTT11=
EXTT12=
PLAYORDER=
